<?xml version="1.0" encoding="utf-8"?>
<!DOCTYPE svg PUBLIC "-//W3C//DTD SVG 1.1//EN" "http://www.w3.org/Graphics/SVG/1.1/DTD/svg11.dtd">
<svg version="1.1" id="Layer_1" xmlns="http://www.w3.org/2000/svg" xmlns:xlink="http://www.w3.org/1999/xlink" x="0px" y="0px"
	 width="16px" height="16px" viewBox="0 0 16 16" enable-background="new 0 0 16 16" xml:space="preserve">
<path fill="#9C9C9E" d="M8,0C3.582,0,0,3.582,0,8s3.582,8,8,8c4.419,0,8-3.582,8-8S12.419,0,8,0z M12.044,10.501
	c0.426,0.426,0.426,1.117,0,1.543c-0.213,0.213-0.492,0.319-0.771,0.319s-0.558-0.106-0.771-0.319L8,9.543l-2.501,2.501
	c-0.214,0.213-0.492,0.319-0.771,0.319s-0.559-0.106-0.771-0.319c-0.426-0.426-0.426-1.117,0-1.543L6.457,8L3.956,5.499
	c-0.426-0.426-0.426-1.117,0-1.542c0.426-0.426,1.116-0.426,1.543,0L8,6.458l2.501-2.501c0.427-0.426,1.117-0.426,1.543,0
	c0.426,0.426,0.426,1.117,0,1.542L9.543,8L12.044,10.501z"/>
</svg>
