<?xml version="1.0" encoding="utf-8"?>
<!DOCTYPE svg PUBLIC "-//W3C//DTD SVG 1.1//EN" "http://www.w3.org/Graphics/SVG/1.1/DTD/svg11.dtd">
<svg version="1.1" id="clear_springboard_theme" xmlns="http://www.w3.org/2000/svg" xmlns:xlink="http://www.w3.org/1999/xlink"
	 x="0px" y="0px" width="19px" height="19px" viewBox="0 0 19 19" enable-background="new 0 0 19 19" xml:space="preserve">
<g opacity="0.5">
	<g>
		<path fill-rule="evenodd" clip-rule="evenodd" fill="#FFFFFF" d="M9.5,0C4.25,0,0,4.25,0,9.5C0,14.75,4.25,19,9.5,19
			c5.25,0,9.5-4.25,9.5-9.5C19.01,4.25,14.75,0,9.5,0z M13.42,14.54l-1.07-0.01l-2.84-2.77l-2.83,2.85L5.6,14.59l-1.14-1.17
			l0.01-1.1l2.79-2.81L4.44,6.7l0.01-1.1l1.07-1.13l1.15-0.01L9.5,7.26l2.81-2.83l1.08-0.01l1.12,1.12l0.01,1.13l-2.81,2.81
			l2.84,2.79l0.02,1.11L13.42,14.54z"/>
	</g>
</g>
</svg>
