<?xml version="1.0" standalone="no"?>
<!DOCTYPE svg PUBLIC "-//W3C//DTD SVG 1.1//EN" "http://www.w3.org/Graphics/SVG/1.1/DTD/svg10.4.dtd">
<svg xmlns="http://www.w3.org/2000/svg" version="1.1" width="40px" height="40px">
<g transform="translate(20,20)">
<g stroke-width="3.7" stroke-linecap="round" stroke="#2B71B9">
<line x1="0" y1="10.4" x2="0" y2="17" transform="rotate(0, 0, 0)" stroke="#D5E3F1"/>
<line x1="0" y1="10.4" x2="0" y2="17" transform="rotate(30, 0, 0)" stroke="#D5E3F1"/>
<line x1="0" y1="10.4" x2="0" y2="17" transform="rotate(60, 0, 0)" stroke="#D5E3F1"/>
<line x1="0" y1="10.4" x2="0" y2="17" transform="rotate(90, 0, 0)" stroke="#D5E3F1"/>
<line x1="0" y1="10.4" x2="0" y2="17" transform="rotate(120, 0, 0)" stroke="#A3C1E1"/>
<line x1="0" y1="10.4" x2="0" y2="17" transform="rotate(150, 0, 0)" stroke="#6E9ECF"/>
<line x1="0" y1="10.4" x2="0" y2="17" transform="rotate(180, 0, 0)" stroke="#D5E3F1"/>
<line x1="0" y1="10.4" x2="0" y2="17" transform="rotate(210, 0, 0)" stroke="#D5E3F1"/>
<line x1="0" y1="10.4" x2="0" y2="17" transform="rotate(240, 0, 0)" stroke="#D5E3F1"/>
<line x1="0" y1="10.4" x2="0" y2="17" transform="rotate(270, 0, 0)" stroke="#D5E3F1"/>
<line x1="0" y1="10.4" x2="0" y2="17" transform="rotate(300, 0, 0)" stroke="#D5E3F1"/>
<line x1="0" y1="10.4" x2="0" y2="17" transform="rotate(330, 0, 0)" stroke="#D5E3F1"/>
</g>
</g>
</svg>