<?xml version="1.0" encoding="utf-8"?>
<!-- Generator: Adobe Illustrator 16.0.4, SVG Export Plug-In . SVG Version: 6.00 Build 0)  -->
<!DOCTYPE svg PUBLIC "-//W3C//DTD SVG 1.1//EN" "http://www.w3.org/Graphics/SVG/1.1/DTD/svg11.dtd">
<svg version="1.1" id="minimize_x5F_16" xmlns="http://www.w3.org/2000/svg" xmlns:xlink="http://www.w3.org/1999/xlink" x="0px"
	 y="0px" width="16px" height="16px" viewBox="0 0 16 16" enable-background="new 0 0 16 16" xml:space="preserve">
<path fill="#0572CE" d="M11.91,6.16c-0.39,0.39-0.94,0.48-1.22,0.19L9.67,5.33c-0.28-0.28-0.2-0.83,0.2-1.22l3.73-3.75
	c0.39-0.39,0.94-0.48,1.22-0.2l1.02,1.02c0.28,0.28,0.2,0.83-0.2,1.22L11.91,6.16z"/>
<path fill="#0572CE" d="M8.82,2.16c0-0.63,0.48-0.52,0.5-0.52l5,5c0.13,0.25,0.05,0.52-0.5,0.52h-4c-0.94,0-1-0.22-1-1V2.16z"/>
<path fill="#0572CE" d="M2.41,15.64c-0.39,0.39-0.94,0.48-1.22,0.2l-1.02-1.02c-0.28-0.28-0.19-0.83,0.2-1.22l2.81-2.8
	c0.39-0.39,0.94-0.48,1.22-0.2l1.02,1.02c0.28,0.28,0.2,0.83-0.2,1.22L2.41,15.64z"/>
<path fill="#0572CE" d="M7.14,13.85c0,0.63-0.48,0.52-0.5,0.52l-5-5C1.5,9.12,1.59,8.85,2.14,8.85h4c0.94,0,1,0.22,1,1V13.85z"/>
</svg>
