<?xml version="1.0" encoding="utf-8"?>
<!DOCTYPE svg PUBLIC "-//W3C//DTD SVG 1.1//EN" "http://www.w3.org/Graphics/SVG/1.1/DTD/svg11.dtd">
<svg version="1.1" id="resize_x5F_16" xmlns="http://www.w3.org/2000/svg" xmlns:xlink="http://www.w3.org/1999/xlink" x="0px"
	 y="0px" width="16px" height="16px" viewBox="0 0 16 16" enable-background="new 0 0 16 16" xml:space="preserve">
<path fill="#0572CE" d="M1.1,3.3c-0.9-0.9-0.9-0.9,0-1.8l0.4-0.4c0.9-0.9,0.9-0.9,1.8,0l3.4,3.4c0.9,0.9,0.9,0.9,0,1.8l-0.4,0.4c-0.9,0.9-0.9,0.9-1.8,0z"/>
<path fill="#0572CE" d="M5.5,0.5c0.5-0.5,0.5-0.5-0.5-0.5l-4,0c-1,0-1,0-1,1l0,4c0,1,0,1,0.5,0.5z"/>
<path fill="#0572CE" d="M9.3,11.5c-0.9-0.9-0.9-0.9,0-1.8l0.4-0.4c0.9-0.9,0.9-0.9,1.8,0l3.4,3.4c0.9,0.9,0.9,0.9,0,1.8l-0.4,0.4c-0.9,0.9-0.9,0.9-1.8,0z"/>
<path fill="#0572CE" d="M10.5,15.5c-0.5,0.5-0.5,0.5,0.5,0.5l4,0c1,0,1,0,1-1l0-4c0-1,0-1-0.5-0.5z"/>
</svg>
