<?xml version="1.0" encoding="utf-8"?>
<svg version="1.1" xmlns="http://www.w3.org/2000/svg"  x="0px"
y="0px" width="19px" height="19px" viewBox="0 0 19 19" enable-background="new 0 0 19 19" xml:space="preserve">
<path fill-rule="evenodd" clip-rule="evenodd" fill="#2B71B9" d="M9.5,0C14.75,0,19,4.25,19,9.5c0,5.25-4.25,9.5-9.5,9.5
S0,14.75,0,9.5C0,4.25,4.25,0,9.5,0z M12.3,4.43l1.08,0l1.12,1.12l0.01,1.13l-2.81,2.81l2.84,2.79l0.02,1.11l-1.15,1.16l-1.07-0.01
L9.5,11.76l-2.83,2.85L5.6,14.58l-1.14-1.16l0.01-1.1l2.79-2.81L4.43,6.7L4.44,5.6l1.07-1.13l1.15-0.01L9.5,7.26L12.3,4.43z"/>
</svg>
