<?xml version="1.0" encoding="utf-8"?>
<!DOCTYPE svg PUBLIC "-//W3C//DTD SVG 1.1//EN" "http://www.w3.org/Graphics/SVG/1.1/DTD/svg11.dtd">
<svg version="1.1" id="DeBug_Icon" xmlns="http://www.w3.org/2000/svg" xmlns:xlink="http://www.w3.org/1999/xlink" x="0px" y="0px"
	 width="16px" height="16px" viewBox="0 0 16 16" enable-background="new 0 0 16 16" xml:space="preserve">
<path fill="#FF0000" d="M16,15c0,0.55-0.45,1-1,1H1c-0.55,0-1-0.45-1-1V1c0-0.55,0.45-1,1-1h14c0.55,0,1,0.45,1,1V15z"/>
<path id="left_body" fill="#FFFFFF" d="M4.72,12.38c0.93,0.96,1.84,1.51,2.78,1.64C7.55,14.02,7.65,14,7.65,14l0-6.17
	c0,0,0.01-0.03,0-0.04C6.13,6.56,4.38,6.3,3.52,7.27C2.54,8.38,3.07,10.66,4.72,12.38z"/>
<path id="right_body" fill="#FFFFFF" d="M11.34,12.36c-0.93,0.96-1.84,1.5-2.79,1.63C8.49,14,8.39,13.97,8.39,13.97l0.02-6.17
	c0,0-0.01-0.03,0-0.04c1.53-1.23,3.28-1.48,4.14-0.51C13.54,8.37,12.99,10.66,11.34,12.36z"/>
<g id="Bottom_Right_Leg_1_">
	<polygon id="Bottom_Right_Leg" fill="#FFFFFF" points="14.99,12.01 14.99,14.99 14,14.03 14.01,12.01 	"/>
	<polygon id="Bottom_Right_Leg_2_" fill="#FFFFFF" points="14.99,12.02 12.48,12.03 12.8,11.04 14,11.03 	"/>
</g>
<g id="Bottom_Left_Leg">
	<polygon id="Bottom_Right_Leg_5_" fill="#FFFFFF" points="1.01,11.99 1.01,14.98 1.98,14 2,11.99 	"/>
	<polygon id="Bottom_Right_Leg_4_" fill="#FFFFFF" points="1.01,12 3.53,12.01 3.2,11.03 2,11.02 	"/>
</g>
<g id="Right_Middle_Leg">
	<polygon id="Left_middle_leg_3_" fill="#FFFFFF" points="14.98,8.55 14.98,10.39 14,9.47 14,8.39 	"/>
	<polygon id="Left_middle_leg_2_" fill="#FFFFFF" points="14.98,9 13.31,9 13.53,8.02 14.98,8.02 	"/>
</g>
<g id="Left_Middle_Leg">
	<polygon id="Left_middle_leg" fill="#FFFFFF" points="1.02,8.55 1.02,10.39 2,9.47 2,8.39 	"/>
	<polygon id="Left_middle_leg_1_" fill="#FFFFFF" points="1.02,9 2.69,9 2.47,8.02 1.02,8.02 	"/>
</g>
<g id="Top_Right_Leg">
	<polygon id="Bottom_Right_Leg_7_" fill="#FFFFFF" points="14.99,5 14.99,2.02 14,2.98 14.01,5 	"/>
	<polygon id="Bottom_Right_Leg_6_" fill="#FFFFFF" points="15,4.16 12.36,6.38 13.06,7.06 14.98,5.52 	"/>
</g>
<g id="Top_Left_Leg">
	<polygon id="Bottom_Right_Leg_8_" fill="#FFFFFF" points="1.02,4.97 1.02,1.98 2.01,2.95 2.01,4.97 	"/>
	<polygon id="Bottom_Right_Leg_3_" fill="#FFFFFF" points="1.02,4.12 3.65,6.34 2.95,7.03 1.03,5.48 	"/>
</g>
<path id="head" fill="#FFFFFF" d="M10.86,3.36c0.4,0.38,0.42,1.01,0.04,1.41l-0.83,0.82L5.92,5.6L5.25,4.92
	C4.85,4.55,4.82,3.91,5.2,3.51l2.04-2.17c0.38-0.4,1.01-0.42,1.41-0.05L10.86,3.36z"/>
</svg>
