<?xml version="1.0" encoding="utf-8"?>
<!DOCTYPE svg PUBLIC "-//W3C//DTD SVG 1.1//EN" "http://www.w3.org/Graphics/SVG/1.1/DTD/svg11.dtd">
<svg version="1.1" id="Layer_1" xmlns="http://www.w3.org/2000/svg" xmlns:xlink="http://www.w3.org/1999/xlink" x="0px" y="0px"
	 width="16px" height="16px" viewBox="0 0 16 16" enable-background="new 0 0 16 16" xml:space="preserve">
<path fill="#0572CE" d="M15.54,13.43c0.51,0.51,0.6,1.24,0.21,1.63l-0.71,0.71c-0.39,0.39-1.12,0.29-1.64-0.22L0.45,2.59
	c-0.51-0.51-0.6-1.25-0.21-1.64l0.72-0.71c0.39-0.39,1.12-0.3,1.63,0.22L15.54,13.43z"/>
<path fill="#0572CE" d="M0.45,13.43c-0.51,0.51-0.6,1.24-0.21,1.63l0.71,0.71c0.39,0.39,1.12,0.29,1.64-0.22L15.55,2.59
	c0.51-0.51,0.6-1.25,0.21-1.64l-0.72-0.71c-0.39-0.39-1.12-0.3-1.63,0.22L0.45,13.43z"/>
</svg>
