<?xml version="1.0" encoding="utf-8"?>
<!DOCTYPE svg PUBLIC "-//W3C//DTD SVG 1.1//EN" "http://www.w3.org/Graphics/SVG/1.1/DTD/svg11.dtd">
<svg version="1.1" id="resize_x5F_16" xmlns="http://www.w3.org/2000/svg" xmlns:xlink="http://www.w3.org/1999/xlink" x="0px"
	 y="0px" width="16px" height="16px" viewBox="0 0 16 16" enable-background="new 0 0 16 16" xml:space="preserve">
<path fill="#0572CE" d="M3.09,15c-0.39,0.39-0.94,0.48-1.22,0.19l-1.02-1.02c-0.28-0.28-0.19-0.83,0.2-1.22L4.77,9.2
	c0.39-0.39,0.94-0.48,1.22-0.2l1.02,1.02c0.28,0.28,0.2,0.83-0.2,1.22L3.09,15z"/>
<path fill="#0572CE" d="M11.27,6.79c-0.39,0.39-0.94,0.48-1.22,0.19L9.03,5.96c-0.28-0.28-0.19-0.83,0.2-1.22l2.81-2.8
	c0.39-0.39,0.94-0.48,1.22-0.2l1.02,1.02c0.28,0.28,0.2,0.83-0.2,1.22L11.27,6.79z"/>
<path fill="#0572CE" d="M0,11c0-0.63,0.48-0.52,0.5-0.52l5,5C5.63,15.73,5.55,16,5,16H1c-0.94,0-1-0.22-1-1V11z"/>
<path fill="#0572CE" d="M16,5c0,0.63-0.48,0.52-0.5,0.52l-5-5C10.37,0.27,10.45,0,11,0h4c0.94,0,1,0.22,1,1V5z"/>
</svg>
