<?xml version="1.0" encoding="utf-8"?>
<svg version="1.1" id="Power_Logo_312_x__x_312" xmlns="http://www.w3.org/2000/svg" xmlns:xlink="http://www.w3.org/1999/xlink"
	 x="0px" y="0px" viewBox="0 0 312 312" style="enable-background:new 0 0 312 312;" xml:space="preserve">
<style type="text/css">
	.st0{opacity:0.25;fill-rule:evenodd;clip-rule:evenodd;fill:#FFFFFF;}
	.st1{fill-rule:evenodd;clip-rule:evenodd;fill:#FFFFFF;}
</style>
<path class="st0" d="M156,0c86.16,0,156,69.84,156,156s-69.84,156-156,156C69.84,312,0,242.16,0,156S69.84,0,156,0z M156,2.06
	c85.05,0,154,68.95,154,154s-68.95,154-154,154c-85.05,0-154-68.95-154-154S70.95,2.06,156,2.06z"/>
<path class="st0" d="M155.75,12c79.53,0,144,64.47,144,144c0,79.53-64.47,144-144,144c-79.53,0-144-64.47-144-144
	C11.75,76.47,76.23,12,155.75,12z"/>
<g>
	<g>
		<path class="st1" d="M146.16,182.67l45.54-26.89l-45.54-26.91v17.95l-54.64-0.02v17.91l54.64,0.02V182.67z M155.27,84.06
			c-26.95,0-50.43,14.44-63.03,35.86h22.39c10.01-10.98,24.48-17.93,40.64-17.93c30.18,0,54.64,24.08,54.64,53.79
			c0,29.7-24.47,53.78-54.64,53.78c-16.16,0-30.64-6.95-40.64-17.93H92.24c12.6,21.41,36.08,35.86,63.03,35.86
			c40.24,0,72.86-32.11,72.86-71.71C228.12,116.16,195.51,84.06,155.27,84.06z"/>
	</g>
</g>
</svg>
